<svg width="992" height="592" viewBox="0 0 992 592" fill="none" xmlns="http://www.w3.org/2000/svg">
<g clip-path="url(#clip0)">
<rect width="992" height="592" fill="white"/>
<path d="M992 0H0V592H992V0Z" fill="#DC73AD"/>
<path d="M778.925 217.325C802.304 217.325 821.257 198.371 821.257 174.989C821.257 151.608 802.304 132.653 778.925 132.653C755.545 132.653 736.592 151.608 736.592 174.989C736.592 198.371 755.545 217.325 778.925 217.325Z" fill="#FFFD77"/>
<path d="M778.925 217.325C802.304 217.325 821.257 198.371 821.257 174.989C821.257 151.608 802.304 132.653 778.925 132.653C755.545 132.653 736.592 151.608 736.592 174.989C736.592 198.371 755.545 217.325 778.925 217.325Z" fill="#5603AD"/>
<path d="M778.925 217.325C802.304 217.325 821.257 198.371 821.257 174.989C821.257 151.608 802.304 132.653 778.925 132.653C755.545 132.653 736.592 151.608 736.592 174.989C736.592 198.371 755.545 217.325 778.925 217.325Z" fill="#FF2C55"/>
<path d="M867.118 81.8498H690.731C688.004 81.8498 685.792 84.0612 685.792 86.789V263.189C685.792 265.917 688.004 268.129 690.731 268.129H867.118C869.846 268.129 872.057 265.917 872.057 263.189V86.789C872.057 84.0612 869.846 81.8498 867.118 81.8498Z" fill="#4BBCF4"/>
<path d="M778.572 249.077C819.292 249.077 852.302 216.065 852.302 175.342C852.302 134.619 819.292 101.607 778.572 101.607C737.852 101.607 704.842 134.619 704.842 175.342C704.842 216.065 737.852 249.077 778.572 249.077Z" fill="#FF9F1C"/>
<path d="M778.275 212.804C798.8 212.804 815.438 196.165 815.438 175.639C815.438 155.113 798.8 138.474 778.275 138.474C757.751 138.474 741.113 155.113 741.113 175.639C741.113 196.165 757.751 212.804 778.275 212.804Z" fill="#293241"/>
<path d="M991.033 593.905C991.048 570.7 981.84 548.44 965.443 532.022C949.046 515.604 926.8 506.372 903.595 506.359C880.389 506.345 858.136 515.55 841.718 531.948C825.3 548.347 816.072 570.596 816.058 593.801L903.545 593.854L991.033 593.905Z" fill="#D22463"/>
<path d="M816.241 418.599C816.121 441.803 825.223 464.105 841.549 480.597C857.868 497.09 880.072 506.422 903.277 506.541C926.483 506.66 948.778 497.556 965.274 481.232C981.762 464.908 991.097 442.701 991.217 419.496L903.729 419.048L816.241 418.599Z" fill="#3019BE"/>
<path d="M641.178 418.479C641.238 441.684 650.511 463.916 666.96 480.282C683.409 496.649 705.682 505.811 728.887 505.751C752.093 505.693 774.317 496.418 790.686 479.968C807.055 463.518 816.213 441.24 816.156 418.035L763.24 418.169C763.261 427.339 759.642 436.142 753.172 442.643C746.709 449.143 737.925 452.809 728.753 452.832C719.588 452.855 710.783 449.235 704.283 442.767C697.782 436.3 694.118 427.515 694.095 418.345L641.178 418.479Z" fill="#1DDF30"/>
<path d="M816.001 592.391C816.001 569.186 806.787 546.931 790.383 530.523C773.972 514.114 751.719 504.896 728.513 504.896C705.313 504.896 683.06 514.114 666.653 530.523C650.245 546.931 641.028 569.186 641.028 592.391H693.944C693.944 583.221 697.587 574.427 704.07 567.943C710.557 561.459 719.348 557.816 728.513 557.816C737.685 557.816 746.476 561.459 752.96 567.943C759.444 574.427 763.085 583.221 763.085 592.391H816.001Z" fill="#DFEF26"/>
<path d="M915.801 172.872C934.894 172.872 950.373 157.393 950.373 138.298C950.373 119.203 934.894 103.723 915.801 103.723C896.707 103.723 881.229 119.203 881.229 138.298C881.229 157.393 896.707 172.872 915.801 172.872Z" fill="#FF2C55"/>
<path d="M159.199 590.962C196.763 590.494 227.175 587.061 227.128 583.295C227.082 579.53 196.593 576.856 159.029 577.324C121.466 577.793 91.0534 581.225 91.1003 584.991C91.1472 588.757 121.636 591.43 159.199 590.962Z" fill="#D71D1D"/>
<path d="M506.272 534.986H463.939C463.16 534.986 462.528 535.618 462.528 536.397V590.728C462.528 591.508 463.16 592.14 463.939 592.14H506.272C507.051 592.14 507.683 591.508 507.683 590.728V536.397C507.683 535.618 507.051 534.986 506.272 534.986Z" fill="#023E7D"/>
<path d="M616.338 534.986H574.005C573.225 534.986 572.594 535.618 572.594 536.397V590.728C572.594 591.508 573.225 592.14 574.005 592.14H616.338C617.117 592.14 617.749 591.508 617.749 590.728V536.397C617.749 535.618 617.117 534.986 616.338 534.986Z" fill="#023E7D"/>
<path d="M706.964 516.612L359.129 516.501C357.96 516.501 357.012 517.448 357.012 518.617L357.008 532.739C357.007 533.908 357.955 534.856 359.124 534.856L706.959 534.967C708.128 534.968 709.076 534.02 709.076 532.851L709.08 518.73C709.081 517.561 708.133 516.613 706.964 516.612Z" fill="#2EC4B6"/>
<path d="M414.2 288.736V290.176L414.488 290.464C414.68 290.656 414.968 290.752 415.352 290.752C416.696 289.984 417.944 289.12 419.096 288.16C420.248 287.008 421.4 285.952 422.552 284.992C431.96 276.16 440.312 266.848 447.608 257.056C452.408 250.912 456.44 244.096 459.704 236.608C460.472 234.88 461.048 233.248 461.432 231.712C462.008 229.984 462.488 228.256 462.872 226.528C463.256 224.608 463.448 223.264 463.448 222.496C463.448 220.192 462.584 217.984 460.856 215.872C459.512 214.528 457.88 213.376 455.96 212.416C454.424 211.84 452.888 211.36 451.352 210.976C450.008 210.592 448.568 210.496 447.032 210.688H445.016C443.672 210.688 443.384 211.072 444.152 211.84C445.688 213.76 445.688 215.968 444.152 218.464C443.768 219.424 443.288 220.288 442.712 221.056C442.328 221.632 441.944 222.304 441.56 223.072C434.84 233.248 429.272 243.808 424.856 254.752C420.44 265.696 416.888 277.024 414.2 288.736ZM475.832 331.936C476.216 333.28 476.12 334.336 475.544 335.104C474.392 337.6 472.664 339.232 470.36 340C468.632 340.768 466.712 341.344 464.6 341.728C459.608 342.88 454.904 343.36 450.488 343.168C447.032 343.36 443.576 343.264 440.12 342.88C436.856 342.304 433.592 341.728 430.328 341.152C427.064 340.768 423.896 340.288 420.824 339.712C417.944 338.944 414.872 338.08 411.608 337.12C411.416 337.12 411.224 337.12 411.032 337.12C410.84 336.928 410.648 336.832 410.456 336.832C409.688 336.64 409.016 336.832 408.44 337.408C407.864 337.792 407.576 338.272 407.576 338.848C407.384 339.616 407.288 340.288 407.288 340.864C407.288 341.44 407.192 342.112 407 342.88C407 343.648 407 344.416 407 345.184C407 345.952 406.904 346.72 406.712 347.488C406.52 347.872 406.328 348.352 406.136 348.928C406.136 349.504 405.944 349.984 405.56 350.368C404.984 351.328 404.12 352 402.968 352.384C400.856 352.768 398.84 352.384 396.92 351.232C395 349.888 393.848 348.16 393.464 346.048C393.272 345.28 393.176 343.936 393.176 342.016V333.664C393.176 331.168 392.312 329.152 390.584 327.616C390.2 327.232 389.72 326.848 389.144 326.464C388.568 325.888 388.088 325.408 387.704 325.024C387.32 324.448 386.84 323.872 386.264 323.296C385.88 322.72 385.496 322.048 385.112 321.28C383.192 317.632 383.384 314.272 385.688 311.2C386.264 310.624 386.84 310.048 387.416 309.472C388.184 308.896 388.952 308.32 389.72 307.744C390.104 307.36 390.584 307.072 391.16 306.88C391.928 306.496 392.6 306.112 393.176 305.728C395.672 304.576 397.208 302.56 397.784 299.68C398.36 296.608 398.936 293.632 399.512 290.752C400.28 287.872 401.144 284.896 402.104 281.824C404.6 272.608 407.48 263.68 410.744 255.04C414.2 246.208 418.136 237.472 422.552 228.832C424.856 224.032 427.736 219.04 431.192 213.856C431.192 213.856 431.192 213.472 431.192 212.704H430.616C428.504 213.28 426.584 213.952 424.856 214.72C409.88 221.248 398.264 231.904 390.008 246.688C388.472 249.568 387.032 252.448 385.688 255.328C384.536 258.208 383.48 261.28 382.52 264.544C382.328 265.12 382.136 265.792 381.944 266.56C381.944 267.136 381.752 267.712 381.368 268.288C380.792 270.592 379.256 271.36 376.76 270.592C375.032 270.208 373.592 269.248 372.44 267.712C371.48 266.176 371 264.736 371 263.392C371 261.28 371.096 259.744 371.288 258.784C373.208 250.336 376.856 242.56 382.232 235.456C386.072 229.888 390.488 225.088 395.48 221.056C400.472 217.024 405.848 213.376 411.608 210.112C413.912 208.96 416.216 208 418.52 207.232C420.824 206.272 423.224 205.312 425.72 204.352C428.6 203.392 431.48 202.72 434.36 202.336C437.24 201.952 440.216 201.568 443.288 201.184C444.824 200.8 446.264 200.896 447.608 201.472C449.144 201.856 450.68 202.24 452.216 202.624C453.176 203.008 454.04 203.392 454.808 203.776C455.576 203.968 456.344 204.256 457.112 204.64C459.992 205.6 462.488 207.136 464.6 209.248C466.712 211.168 468.536 213.28 470.072 215.584C472.376 219.04 473.528 222.88 473.528 227.104C473.528 231.712 472.856 236.032 471.512 240.064C469.976 244.096 468.248 248.032 466.328 251.872C464.6 255.712 462.488 259.456 459.992 263.104C454.424 271.744 448.088 279.52 440.984 286.432C433.88 293.344 425.912 299.488 417.08 304.864C416.504 305.248 415.928 305.632 415.352 306.016C414.968 306.208 414.488 306.496 413.912 306.88C411.224 308.416 409.784 310.528 409.592 313.216C409.4 314.56 409.112 315.904 408.728 317.248C408.536 318.4 408.536 319.648 408.728 320.992C408.728 322.528 409.304 323.392 410.456 323.584C411.8 324.16 413.144 324.736 414.488 325.312C415.832 325.696 417.176 326.08 418.52 326.464C422.552 327.424 426.488 328.288 430.328 329.056C434.36 329.824 438.488 330.4 442.712 330.784C444.248 330.976 445.784 331.264 447.32 331.648C448.856 331.84 450.392 331.936 451.928 331.936C454.616 331.936 457.304 331.936 459.992 331.936C462.872 331.744 465.656 331.36 468.344 330.784C469.304 330.4 470.168 330.208 470.936 330.208C471.704 330.208 472.568 330.112 473.528 329.92C473.912 329.92 474.392 330.208 474.968 330.784C475.544 331.168 475.832 331.552 475.832 331.936ZM469.539 287.296C469.923 287.104 470.115 286.912 470.115 286.72C470.307 286.528 470.595 286.336 470.979 286.144C471.747 285.568 472.227 284.992 472.419 284.416C472.803 283.648 473.187 283.072 473.571 282.688C473.763 282.112 473.955 281.632 474.147 281.248C474.147 280.288 473.763 280 472.995 280.384C472.611 280.576 472.131 280.96 471.555 281.536C471.171 281.92 470.691 282.592 470.115 283.552C469.539 284.512 469.059 285.376 468.675 286.144C468.483 286.528 468.291 287.104 468.099 287.872C467.907 288.448 468.099 288.544 468.675 288.16L469.539 287.296ZM471.267 315.52C465.315 315.52 460.995 313.6 458.307 309.76C456.771 307.648 455.811 305.056 455.427 301.984C455.235 301.6 455.235 301.216 455.427 300.832C455.427 300.256 455.427 299.776 455.427 299.392C455.427 298.816 455.619 297.952 456.003 296.8C457.539 292.576 459.363 288.64 461.475 284.992C463.587 281.344 466.179 277.984 469.251 274.912C469.635 274.528 469.827 274.24 469.827 274.048C470.019 273.856 470.307 273.664 470.691 273.472C472.995 271.552 475.491 271.36 478.179 272.896C479.139 273.472 480.003 274.432 480.771 275.776C481.539 277.12 481.731 278.368 481.347 279.52C480.195 286.24 476.739 291.616 470.979 295.648C470.211 296.224 469.443 296.608 468.675 296.8C467.907 296.992 467.043 297.184 466.083 297.376C465.123 297.376 464.355 297.856 463.779 298.816C462.627 300.928 462.147 303.232 462.339 305.728C462.339 308.224 463.587 309.472 466.083 309.472C468.195 309.856 470.115 309.568 471.843 308.608C472.803 308.224 473.667 307.744 474.435 307.168C475.203 306.592 476.067 306.016 477.027 305.44C479.331 303.904 481.539 302.176 483.651 300.256C485.763 298.336 487.875 296.32 489.987 294.208C491.715 292.672 493.443 291.04 495.171 289.312C497.091 287.584 498.915 285.952 500.643 284.416C501.411 283.648 502.371 282.976 503.523 282.4C503.907 282.208 504.291 282.208 504.675 282.4C505.251 282.4 505.635 282.592 505.827 282.976C505.827 283.936 505.731 284.512 505.539 284.704C505.347 285.472 504.771 286.144 503.811 286.72C500.739 289.984 497.667 293.248 494.595 296.512C491.715 299.584 488.739 302.752 485.667 306.016C483.171 308.512 480.675 310.72 478.179 312.64C475.683 314.944 473.379 315.904 471.267 315.52ZM527.098 299.104C527.482 299.488 527.578 299.968 527.386 300.544C527.386 300.928 527.194 301.216 526.81 301.408C526.426 301.6 526.138 301.792 525.946 301.984C525.754 302.176 525.466 302.272 525.082 302.272C523.93 302.656 522.682 303.04 521.338 303.424C520.186 303.808 518.938 304.192 517.594 304.576C515.674 305.152 513.85 305.92 512.122 306.88C510.586 307.648 509.05 308.512 507.514 309.472C505.978 310.432 505.498 311.584 506.074 312.928C506.458 313.888 506.746 314.944 506.938 316.096C507.322 317.056 507.706 318.016 508.09 318.976L512.41 331.072C515.098 339.712 516.154 348.352 515.578 356.992C515.002 363.712 512.89 369.472 509.242 374.272C505.594 379.072 500.794 382.048 494.842 383.2C492.538 383.584 490.234 383.776 487.93 383.776C485.626 383.968 483.322 383.872 481.018 383.488C471.61 381.568 465.082 376 461.434 366.784C460.666 364.48 460.378 361.984 460.57 359.296C460.762 355.648 461.818 351.712 463.738 347.488C465.082 344.608 466.618 341.92 468.346 339.424C470.074 336.736 471.898 334.24 473.818 331.936C476.89 328.096 480.154 324.544 483.61 321.28C487.066 317.824 490.714 314.464 494.554 311.2C495.706 310.432 496.57 309.76 497.146 309.184C497.722 308.608 498.01 307.84 498.01 306.88C497.818 306.112 497.722 305.44 497.722 304.864C497.53 304.288 497.338 303.616 497.146 302.848C495.802 296.896 496.378 291.04 498.874 285.28C500.026 282.4 501.466 279.712 503.194 277.216C505.114 274.72 507.13 272.32 509.242 270.016C510.394 268.672 512.026 267.52 514.138 266.56C516.058 265.792 517.594 266.176 518.746 267.712C519.322 268.288 519.61 269.056 519.61 270.016C519.61 270.976 519.322 271.648 518.746 272.032C518.362 272.416 517.978 272.704 517.594 272.896C512.218 276.928 507.994 282.496 504.922 289.6C503.194 294.208 502.714 298.72 503.482 303.136C503.482 303.52 503.674 303.808 504.058 304C504.442 304.192 504.826 304.192 505.21 304L510.394 301.408C511.354 300.64 512.41 300.064 513.562 299.68C514.714 299.104 515.866 298.624 517.018 298.24C519.706 297.472 522.586 297.376 525.658 297.952C526.234 297.952 526.714 298.336 527.098 299.104ZM508.378 344.32C507.994 339.712 507.13 335.2 505.786 330.784C504.634 326.368 503.194 321.952 501.466 317.536C500.698 315.424 499.45 315.136 497.722 316.672C497.146 317.056 496.378 317.728 495.418 318.688C493.114 320.8 490.906 323.008 488.794 325.312C486.49 327.616 484.282 329.824 482.17 331.936C480.634 333.664 479.194 335.488 477.85 337.408C476.314 339.328 474.874 341.344 473.53 343.456C472.378 345.376 471.322 347.296 470.362 349.216C469.402 350.944 468.73 352.864 468.346 354.976C466.618 362.464 468.538 368.896 474.106 374.272C476.218 376.192 478.522 377.248 481.018 377.44C482.554 377.632 483.994 377.632 485.338 377.44C486.682 377.44 488.122 377.44 489.658 377.44C492.538 377.248 495.226 376.192 497.722 374.272C500.026 372.544 502.138 370.048 504.058 366.784C507.13 360.832 508.57 354.304 508.378 347.2V344.32ZM508.954 263.392C507.802 264.736 506.65 264.832 505.498 263.68C504.73 263.104 504.25 262.528 504.058 261.952C504.058 261.184 503.962 260.32 503.77 259.36C503.77 256.48 504.538 253.792 506.074 251.296C506.458 250.528 507.13 249.952 508.09 249.568C509.242 248.608 510.49 248.608 511.834 249.568C513.37 250.336 513.754 251.488 512.986 253.024C512.602 254.368 512.122 255.712 511.546 257.056C510.97 258.4 510.49 259.744 510.106 261.088C509.914 261.472 509.722 261.856 509.53 262.24C509.338 262.624 509.146 263.008 508.954 263.392ZM523.523 299.392C523.331 297.856 523.427 296.224 523.811 294.496C524.195 292.768 524.579 291.136 524.963 289.6C525.923 287.104 526.979 284.8 528.131 282.688C529.091 280.384 530.243 278.08 531.587 275.776C531.971 275.2 532.355 274.624 532.739 274.048C533.315 273.472 533.891 272.896 534.467 272.32C535.427 271.552 536.483 271.264 537.635 271.456C538.979 271.456 540.131 271.936 541.091 272.896C542.243 274.048 542.531 275.296 541.955 276.64C541.379 278.176 540.611 279.712 539.651 281.248C538.307 283.936 537.059 286.624 535.907 289.312C534.755 291.808 533.795 294.4 533.027 297.088C532.067 300.352 531.875 303.424 532.451 306.304L532.739 306.592C533.123 306.784 533.603 306.88 534.179 306.88C534.179 306.688 534.179 306.592 534.179 306.592C534.371 306.592 534.467 306.496 534.467 306.304C535.043 305.92 535.523 305.44 535.907 304.864C538.595 301.024 540.611 297.088 541.955 293.056C542.531 291.328 542.915 289.6 543.107 287.872C543.491 285.952 543.299 284.032 542.531 282.112C542.339 281.344 542.531 280.672 543.107 280.096C543.683 279.52 544.259 279.328 544.835 279.52C547.907 280.288 550.979 280.672 554.051 280.672C557.123 280.48 560.195 280.384 563.267 280.384C564.035 280.384 565.187 280.576 566.723 280.96C567.491 280.96 567.875 281.344 567.875 282.112C567.875 283.072 567.683 283.744 567.299 284.128C566.723 284.704 566.243 284.992 565.859 284.992C564.131 285.952 562.019 286.432 559.523 286.432C558.563 286.432 557.507 286.528 556.355 286.72C555.395 286.72 554.435 286.72 553.475 286.72C551.747 287.104 550.787 287.968 550.595 289.312C550.403 290.272 550.211 291.136 550.019 291.904C550.019 292.672 549.827 293.536 549.443 294.496C549.059 296.032 548.579 297.664 548.003 299.392C547.619 300.928 547.139 302.464 546.563 304C545.027 307.84 542.915 310.912 540.227 313.216C535.043 318.208 530.435 317.632 526.403 311.488C524.099 307.84 523.139 303.808 523.523 299.392ZM564.486 302.272C564.486 302.848 564.486 303.136 564.486 303.136C564.486 303.712 564.678 304 565.062 304C565.062 304 565.447 304 566.215 304C566.791 303.232 567.367 302.56 567.943 301.984C568.519 301.216 568.999 300.448 569.383 299.68C571.879 296.032 574.183 292.288 576.295 288.448C576.871 287.488 577.351 286.624 577.735 285.856C578.119 285.088 578.503 284.224 578.887 283.264C579.079 282.88 579.175 282.688 579.175 282.688C579.175 282.496 579.271 282.208 579.463 281.824C579.463 280.672 579.271 279.904 578.887 279.52C578.503 279.136 577.639 279.136 576.295 279.52C574.951 280.48 573.607 281.92 572.263 283.84C570.151 287.104 568.135 290.752 566.215 294.784C565.831 296.128 565.447 297.376 565.062 298.528C564.678 299.68 564.486 300.928 564.486 302.272ZM555.846 302.56C555.846 302.176 556.038 301.024 556.422 299.104C558.15 291.616 561.126 284.992 565.351 279.232C566.119 278.272 566.887 277.408 567.655 276.64C568.423 275.68 569.287 274.72 570.247 273.76C572.167 272.224 574.375 271.648 576.871 272.032C579.559 272.224 581.671 273.088 583.207 274.624C584.935 276.544 586.087 278.56 586.663 280.672C587.431 282.592 587.335 284.8 586.375 287.296C585.991 288.64 585.607 289.888 585.223 291.04C584.839 292.192 584.455 293.44 584.07 294.784C583.687 296.512 583.303 298.24 582.919 299.968C582.535 301.696 582.151 303.424 581.767 305.152V307.744C581.767 308.704 582.151 309.376 582.919 309.76C583.687 310.144 584.454 310.048 585.223 309.472C586.375 309.088 587.239 308.512 587.815 307.744C588.775 306.784 589.735 305.824 590.695 304.864C591.847 303.712 592.903 302.56 593.863 301.408C595.207 299.872 596.455 298.336 597.607 296.8C598.759 295.264 600.007 293.728 601.351 292.192C603.079 290.08 604.903 288.16 606.823 286.432C608.743 284.512 610.759 282.784 612.871 281.248C614.023 280.48 614.983 279.904 615.751 279.52C616.135 279.52 616.519 279.712 616.903 280.096C617.095 280.288 617.095 280.48 616.903 280.672C616.903 280.672 616.999 280.864 617.191 281.248C617.191 281.44 617.095 281.536 616.903 281.536C616.903 281.536 616.903 281.632 616.903 281.824C613.639 285.664 610.471 289.696 607.398 293.92C604.327 297.952 601.351 302.08 598.471 306.304C596.935 308.416 595.399 310.24 593.863 311.776C593.287 312.352 592.711 312.928 592.135 313.504C591.559 314.08 590.983 314.56 590.407 314.944C586.567 317.248 582.919 316.96 579.463 314.08C576.967 312.16 575.239 309.376 574.279 305.728C573.895 304.96 573.319 304.96 572.551 305.728C572.167 306.304 571.687 306.88 571.111 307.456C570.727 308.032 570.247 308.704 569.671 309.472C569.287 309.856 568.903 310.24 568.519 310.624C568.135 310.816 567.751 311.104 567.367 311.488C565.447 313.024 563.43 313.504 561.318 312.928C559.206 312.16 557.67 310.72 556.71 308.608C556.326 307.648 556.134 306.784 556.134 306.016C555.942 305.248 555.846 304.096 555.846 302.56ZM604.777 303.712C604.969 303.328 605.161 302.752 605.353 301.984C605.353 301.024 605.449 299.968 605.641 298.816C606.217 296.128 606.889 293.632 607.657 291.328C608.425 288.832 609.289 286.24 610.249 283.552C611.209 281.248 612.169 278.944 613.129 276.64C614.089 274.336 615.049 271.936 616.009 269.44C616.393 268.48 616.777 267.616 617.161 266.848C617.737 266.08 618.313 265.216 618.889 264.256C620.041 262.528 621.769 261.76 624.073 261.952C626.569 261.952 628.297 263.008 629.257 265.12C629.641 266.656 629.737 267.808 629.545 268.576C629.353 269.536 628.873 270.976 628.105 272.896C626.953 275.968 625.609 279.232 624.073 282.688C621.577 288.64 619.561 294.496 618.025 300.256C617.641 300.832 617.449 301.504 617.449 302.272C617.449 302.848 617.353 303.424 617.161 304C617.161 304.192 617.161 304.288 617.161 304.288C617.353 304.288 617.449 304.384 617.449 304.576C618.025 304 618.313 303.808 618.313 304C619.657 300.928 620.905 297.856 622.057 294.784C623.401 291.712 624.649 288.64 625.801 285.568C626.569 283.84 627.337 282.208 628.105 280.672C629.065 278.944 630.121 277.312 631.273 275.776C631.657 275.392 631.945 275.008 632.137 274.624C632.329 274.24 632.617 273.856 633.001 273.472C634.729 271.36 637.033 270.592 639.913 271.168C642.985 271.744 645.001 273.568 645.961 276.64C646.345 278.176 646.537 279.616 646.537 280.96C646.537 282.304 646.345 283.744 645.961 285.28C645.769 286.624 645.577 287.968 645.385 289.312C645.193 290.464 644.905 291.712 644.521 293.056C643.753 295.552 643.561 298.432 643.945 301.696C643.945 302.848 644.137 303.712 644.521 304.288C644.905 304.672 645.673 305.056 646.825 305.44C647.401 305.44 647.881 305.536 648.265 305.728C649.225 306.112 649.801 306.784 649.993 307.744C650.185 308.512 649.897 309.28 649.129 310.048C648.745 310.432 647.977 310.816 646.825 311.2C645.289 311.776 643.849 311.776 642.505 311.2C636.745 308.896 633.577 304.768 633.001 298.816C632.617 296.128 632.713 293.92 633.289 292.192C633.673 290.272 634.057 288.448 634.441 286.72C635.017 284.8 635.497 282.976 635.881 281.248C635.881 280.864 635.689 280.48 635.305 280.096L635.017 280.384C634.057 281.728 633.289 283.072 632.713 284.416C632.137 285.76 631.561 287.2 630.985 288.736C630.025 291.808 629.065 294.784 628.105 297.664C627.145 300.544 626.185 303.424 625.225 306.304C624.649 307.84 624.073 309.28 623.497 310.624C623.113 311.776 622.633 313.024 622.057 314.368C621.865 315.136 621.577 315.808 621.193 316.384C621.001 316.96 620.713 317.536 620.329 318.112C619.369 319.456 618.121 320.32 616.585 320.704C615.241 321.088 613.801 320.896 612.265 320.128C609.577 318.784 607.657 316.672 606.505 313.792C605.353 311.296 604.777 307.936 604.777 303.712Z" fill="white"/>
</g>
<defs>
<clipPath id="clip0">
<rect width="992" height="592" fill="white"/>
</clipPath>
</defs>
</svg>
