<svg width="1406" height="839" fill="none">
  <g clip-path="url(#clip0)">
    <path fill="#DC73AD" d="M0 0h1406v839H0z"/>
    <circle cx="1104" cy="248" r="60" fill="#FFFD77"/>
    <circle cx="1104" cy="248" r="60" fill="#5603AD"/>
    <circle cx="1104" cy="248" r="60" fill="#FF2C55"/>
    <rect x="972" y="116" width="264" height="264" rx="7" fill="#4BBCF4"/>
    <circle cx="1103.5" cy="248.5" r="104.5" fill="#FF9F1C"/>
    <circle cx="1103.08" cy="248.921" r="52.671" fill="#293241"/>
    <path d="M1404.63 841.7a124.006 124.006 0 00-123.93-124.073 123.995 123.995 0 00-124.07 123.926l124 .074 124 .073z" fill="#D22463"/>
    <path d="M1156.89 593.251a123.973 123.973 0 0035.87 87.866 123.975 123.975 0 0087.49 36.768 124.012 124.012 0 0087.87-35.869 124.022 124.022 0 0036.77-87.494l-124-.635-124-.636z" fill="#3019BE"/>
    <path d="M908.767 593.081a124.003 124.003 0 00124.313 123.685 124 124 0 0087.59-36.541 123.997 123.997 0 0036.1-87.773l-75 .19a49.002 49.002 0 01-14.27 34.685 48.98 48.98 0 01-34.61 14.44 48.999 48.999 0 01-49.123-48.876l-75 .19z" fill="#1DDF30"/>
    <path d="M1156.55 839.554c0-32.887-13.06-64.427-36.31-87.681a124.023 124.023 0 00-87.69-36.319 123.994 123.994 0 00-87.677 36.319 123.996 123.996 0 00-36.319 87.681h75a49 49 0 0183.646-34.648 48.994 48.994 0 0114.35 34.648h75z" fill="#DFEF26"/>
    <circle cx="1298" cy="196" r="49" fill="#FF2C55"/>
    <ellipse cx="225.519" cy="827.865" rx="96.406" ry="9.664" transform="rotate(-.714 225.519 827.865)" fill="#D71D1D"/>
    <rect x="655.559" y="758.198" width="64" height="81" rx="2" fill="#023E7D"/>
    <rect x="811.559" y="758.198" width="64" height="81" rx="2" fill="#023E7D"/>
    <rect x="506.008" y="732" width="499" height="26.013" rx="3" transform="rotate(.018 506.008 732)" fill="#2EC4B6"/>
  </g>
  <defs>
    <clipPath id="clip0">
      <path fill="#fff" d="M0 0h1406v839H0z"/>
    </clipPath>
  </defs>
</svg>
