<svg width="1406" height="839" viewBox="0 0 1406 839" fill="none" xmlns="http://www.w3.org/2000/svg">
<g clip-path="url(#clip0)">
<rect width="1406" height="839" fill="#DC73AD"/>
<circle cx="1104" cy="248" r="60" fill="#FFFD77"/>
<circle cx="1104" cy="248" r="60" fill="#5603AD"/>
<circle cx="1104" cy="248" r="60" fill="#FF2C55"/>
<rect x="972" y="116" width="264" height="264" rx="7" fill="#4BBCF4"/>
<circle cx="1103.5" cy="248.5" r="104.5" fill="#FF9F1C"/>
<circle cx="1103.08" cy="248.921" r="52.6714" fill="#293241"/>
<path d="M1404.63 841.7C1404.65 808.813 1391.6 777.266 1368.36 753.997C1345.12 730.729 1313.59 717.646 1280.7 717.627C1247.81 717.607 1216.27 730.653 1193 753.893C1169.73 777.134 1156.65 808.666 1156.63 841.553L1280.63 841.627L1404.63 841.7Z" fill="#D22463"/>
<path d="M1156.89 593.251C1156.72 626.137 1169.62 657.744 1192.76 681.117C1215.89 704.491 1247.36 717.716 1280.25 717.885C1313.14 718.054 1344.74 705.151 1368.12 682.016C1391.49 658.881 1404.72 627.409 1404.89 594.522L1280.89 593.887L1156.89 593.251Z" fill="#3019BE"/>
<path d="M908.767 593.081C908.851 625.968 921.995 657.475 945.308 680.67C968.622 703.866 1000.19 716.85 1033.08 716.766C1065.97 716.683 1097.47 703.539 1120.67 680.225C1143.87 656.912 1156.85 625.339 1156.77 592.452L1081.77 592.642C1081.8 605.638 1076.67 618.114 1067.5 627.327C1058.34 636.539 1045.89 641.734 1032.89 641.767C1019.9 641.799 1007.42 636.669 998.207 627.503C988.994 618.337 983.8 605.887 983.767 592.891L908.767 593.081Z" fill="#1DDF30"/>
<path d="M1156.55 839.554C1156.55 806.667 1143.49 775.127 1120.24 751.873C1096.98 728.618 1065.44 715.554 1032.55 715.554C999.667 715.554 968.127 728.618 944.873 751.873C921.618 775.127 908.554 806.667 908.554 839.554L983.554 839.554C983.554 826.558 988.717 814.095 997.906 804.906C1007.1 795.717 1019.56 790.554 1032.55 790.554C1045.55 790.554 1058.01 795.717 1067.2 804.906C1076.39 814.095 1081.55 826.558 1081.55 839.554H1156.55Z" fill="#DFEF26"/>
<circle cx="1298" cy="196" r="49" fill="#FF2C55"/>
<ellipse cx="225.519" cy="827.865" rx="96.4065" ry="9.66437" transform="rotate(-0.71406 225.519 827.865)" fill="#D71D1D"/>
<rect x="655.559" y="758.198" width="64" height="81" rx="2" fill="#023E7D"/>
<rect x="811.559" y="758.198" width="64" height="81" rx="2" fill="#023E7D"/>
<rect x="506.008" y="732" width="499" height="26.013" rx="3" transform="rotate(0.0183084 506.008 732)" fill="#2EC4B6"/>
</g>
<defs>
<clipPath id="clip0">
<rect width="1406" height="839" fill="white"/>
</clipPath>
</defs>
</svg>
